<?xml version="1.0" standalone="no"?>
<!DOCTYPE svg PUBLIC "-//W3C//DTD SVG 20010904//EN"
 "http://www.w3.org/TR/2001/REC-SVG-20010904/DTD/svg10.dtd">
<svg version="1.0" xmlns="http://www.w3.org/2000/svg"
 width="225.000000pt" height="225.000000pt" viewBox="0 0 225.000000 225.000000"
 preserveAspectRatio="xMidYMid meet">
<metadata>
Created by potrace 1.16, written by Peter Selinger 2001-2019
</metadata>
<g transform="translate(0.000000,225.000000) scale(0.100000,-0.100000)"
fill="#000000" stroke="none">
<path d="M534 1946 c-81 -36 -137 -152 -148 -310 -7 -98 -41 -178 -85 -204
-17 -9 -31 -21 -31 -26 0 -4 15 -23 34 -42 30 -30 40 -34 88 -34 30 0 60 6 67
13 10 10 16 7 29 -13 10 -13 29 -38 43 -55 17 -20 30 -52 38 -95 32 -171 79
-309 114 -339 23 -18 51 24 88 137 46 137 48 207 13 382 -26 130 -27 147 -16
211 19 110 71 193 155 246 l39 24 -35 42 c-18 22 -50 50 -71 60 -37 19 -37 19
-99 -2 l-63 -21 -52 20 c-61 23 -67 24 -108 6z"/>
<path d="M1418 1947 c-45 -13 -110 -54 -135 -85 -11 -13 -5 -20 36 -43 126
-72 184 -219 155 -389 -8 -45 -16 -86 -19 -90 -2 -3 -9 -47 -15 -96 -6 -49
-18 -113 -27 -142 l-16 -53 28 -29 c15 -16 41 -34 57 -41 39 -16 80 5 143 72
44 47 45 50 45 112 0 48 7 79 25 120 14 30 32 93 40 139 7 45 25 116 39 157
34 96 33 141 -3 216 -46 99 -125 151 -238 160 -42 3 -86 0 -115 -8z"/>
<path d="M1020 1811 c-53 -17 -89 -42 -134 -92 -77 -86 -93 -177 -56 -334 11
-47 24 -121 29 -165 6 -58 19 -101 45 -156 29 -61 36 -88 36 -135 0 -33 6 -74
14 -93 15 -37 148 -176 168 -176 14 0 134 119 162 160 11 17 16 46 16 92 0 58
5 79 35 139 27 53 39 94 50 172 8 56 22 131 31 167 44 182 -3 319 -134 393
-47 26 -66 30 -145 33 -51 2 -103 0 -117 -5z"/>
<path d="M451 1012 l-54 -37 26 -19 26 -19 -24 -31 -23 -31 54 -94 c30 -52 57
-97 59 -100 9 -8 106 43 101 53 -38 85 -67 167 -81 227 -10 41 -21 77 -24 80
-3 4 -30 -9 -60 -29z"/>
<path d="M1666 961 c-27 -47 -51 -88 -53 -90 -2 -3 -14 6 -27 18 l-24 22 -14
-28 c-32 -65 20 -169 59 -117 51 68 118 227 111 265 -2 10 -24 -19 -52 -70z"/>
<path d="M1741 964 c-15 -91 -43 -174 -70 -213 -24 -33 -22 -35 56 -75 51 -25
57 -26 243 -26 l190 0 0 68 c0 71 -16 108 -59 138 -21 15 -338 184 -344 184
-2 0 -9 -34 -16 -76z"/>
<path d="M251 899 c-47 -28 -90 -58 -98 -67 -15 -21 -48 -105 -58 -149 l-7
-33 196 0 c108 0 196 2 196 5 0 3 -18 31 -39 63 -22 31 -49 78 -62 104 -20 42
-21 50 -9 73 12 22 11 27 -6 40 -10 8 -21 14 -24 14 -3 0 -43 -22 -89 -50z"/>
<path d="M875 775 c12 -77 38 -141 97 -235 33 -52 70 -108 84 -125 l24 -30 0
109 0 108 -27 -7 c-16 -4 -34 -8 -40 -9 -7 0 -42 51 -79 114 -57 99 -65 110
-59 75z"/>
<path d="M1360 787 c0 -7 -19 -44 -43 -82 -24 -39 -49 -84 -56 -102 l-13 -32
-34 16 c-18 9 -36 14 -39 11 -3 -3 -4 -52 -3 -109 l3 -103 66 99 c83 124 93
145 119 236 23 86 23 79 10 79 -5 0 -10 -6 -10 -13z"/>
<path d="M1401 692 c-22 -177 -62 -280 -136 -357 l-44 -45 334 0 335 0 0 95
c0 102 -9 133 -52 172 -20 18 -405 223 -420 223 -3 0 -10 -39 -17 -88z"/>
<path d="M622 676 c-116 -58 -197 -107 -220 -130 l-37 -36 -3 -110 -4 -110
334 0 335 0 -44 45 c-23 25 -54 68 -68 95 -28 55 -60 181 -70 278 -6 48 -11
62 -23 62 -10 -1 -99 -43 -200 -94z"/>
</g>
</svg>
